# xmcd
#
# Track frame offsets: 
#        150
#        16669
#        26715
#        36685
#        50271
#        63360
#        77836
#        91044
#        106321
#        121347
#        137541
#        147920
#        163252
#        173406
#        184314
#        197089
#        208219
#        221453
#        232714
#        245579
#        258094
#
# Disc length: 3647 seconds
#
# Revision: 3
# Processed by: cddbd v1.5.2PL0 Copyright (c) Steve Scherf et al.
# Submitted via: ExactAudioCopyFreeDBPlugin 1.0
#
DISCID=1e0e3d15
DTITLE=Billie Jo Spears - Readers Digest's Country Classics - CD 1
DYEAR=1994
DGENRE=Country
TTITLE0=Blanket On The Ground
TTITLE1=Snowbird
TTITLE2=Souvenirs And Californian Memories
TTITLE3=Last Rose Of Summer
TTITLE4=Before Your Time
TTITLE5=Heartbreak Hotel
TTITLE6=Your Old Love Letters
TTITLE7=Lovin' Him was Easier (Than Anything I'll Ever Do Again)
TTITLE8=You Could Know As Much About A Stranger
TTITLE9=Slow Movin' outlaw
TTITLE10=Here Comes My Baby Back Again
TTITLE11=Silver Wings And Golden Rings
TTITLE12=I Stayed Long Enough
TTITLE13=Livin' in A House Full Of Love
TTITLE14=Livin' Our Love Together
TTITLE15=I'm Good At What I Do
TTITLE16=It Coulda Been Me
TTITLE17=Come On Home
TTITLE18='57 Chevrolet
TTITLE19=Marty Gray
TTITLE20=Sing Me An Old Fashioned Song
EXTD=\n
EXTT0=
EXTT1=
EXTT2=
EXTT3=
EXTT4=
EXTT5=
EXTT6=
EXTT7=
EXTT8=
EXTT9=
EXTT10=
EXTT11=
EXTT12=
EXTT13=
EXTT14=
EXTT15=
EXTT16=
EXTT17=
EXTT18=
EXTT19=
EXTT20=
PLAYORDER=
